<?xml version="1.0"?>
<svg xmlns="http://www.w3.org/2000/svg" xmlns:xlink="http://www.w3.org/1999/xlink" xmlns:svgjs="http://svgjs.com/svgjs" version="1.1" width="512" height="512" x="0" y="0" viewBox="0 0 50 50.001" style="enable-background:new 0 0 512 512" xml:space="preserve" class=""><g>
<g xmlns="http://www.w3.org/2000/svg">
	<g>
		<path d="M26.12,14.488c0.879-1.468,2.27-3.569,4.027-5.585h0.002c1.488-1.711,4.402-3.907,4.402-3.907    c0.438-0.331,0.391-0.792-0.107-1.024l-3.522-1.646c-0.498-0.233-1.175-0.063-1.505,0.376c0,0-2.605,3.737-5.671,11.692    c-9.48-4.288-18.491,1.718-18.491,12.162c0,10.909,8.393,27.48,19.743,22.478c11.954,5.173,19.749-11.568,19.749-22.478    C44.747,16.022,36.647,9.846,26.12,14.488z" fill="#ffffff" data-original="#000000" style="" class=""/>
		<path d="M23.997,10.955c0.548-0.046,1.032-0.531,1.076-1.078c0,0,0.352-4.266-2.621-7.242c-2.982-2.977-7.24-2.622-7.24-2.622    c-0.548,0.046-1.032,0.531-1.077,1.078c0,0-0.358,4.268,2.619,7.245C19.729,11.31,23.997,10.955,23.997,10.955z" fill="#ffffff" data-original="#000000" style="" class=""/>
	</g>
</g>
<g xmlns="http://www.w3.org/2000/svg">
</g>
<g xmlns="http://www.w3.org/2000/svg">
</g>
<g xmlns="http://www.w3.org/2000/svg">
</g>
<g xmlns="http://www.w3.org/2000/svg">
</g>
<g xmlns="http://www.w3.org/2000/svg">
</g>
<g xmlns="http://www.w3.org/2000/svg">
</g>
<g xmlns="http://www.w3.org/2000/svg">
</g>
<g xmlns="http://www.w3.org/2000/svg">
</g>
<g xmlns="http://www.w3.org/2000/svg">
</g>
<g xmlns="http://www.w3.org/2000/svg">
</g>
<g xmlns="http://www.w3.org/2000/svg">
</g>
<g xmlns="http://www.w3.org/2000/svg">
</g>
<g xmlns="http://www.w3.org/2000/svg">
</g>
<g xmlns="http://www.w3.org/2000/svg">
</g>
<g xmlns="http://www.w3.org/2000/svg">
</g>
</g></svg>
