<?xml version="1.0"?>
<svg xmlns="http://www.w3.org/2000/svg" xmlns:xlink="http://www.w3.org/1999/xlink" xmlns:svgjs="http://svgjs.com/svgjs" version="1.1" width="512" height="512" x="0" y="0" viewBox="0 0 228.354 228.354" style="enable-background:new 0 0 512 512" xml:space="preserve" class=""><g>
<g xmlns="http://www.w3.org/2000/svg">
	<circle cx="168.421" cy="133.976" r="6.234" fill="#ffffff" data-original="#000000" style="" class=""/>
	<path d="M215.86,151.053l-4.16-5.428l-7.51-12.458l4.613-24.11L184.95,96.778l-6.744-25.887l-26.754-0.794l-17.29-20.423   L109.74,60.6L85.32,49.673L68.042,70.096l-26.733,0.793l-6.7,25.888l-23.764,12.277l5.197,26.241L0,156.423l15.762,20.754h190.309   h0.009h2.173c1.88,0.954,4,1.504,6.252,1.504c7.648,0,13.848-6.2,13.848-13.848C228.354,157.642,222.872,151.734,215.86,151.053z    M136.576,161.874c-4.223-24.464,13.096-44.106,34.628-54.384l30.885,51.241c-0.498,1.011-0.885,2.085-1.125,3.217L136.576,161.874   z" fill="#ffffff" data-original="#000000" style="" class=""/>
</g>
<g xmlns="http://www.w3.org/2000/svg">
</g>
<g xmlns="http://www.w3.org/2000/svg">
</g>
<g xmlns="http://www.w3.org/2000/svg">
</g>
<g xmlns="http://www.w3.org/2000/svg">
</g>
<g xmlns="http://www.w3.org/2000/svg">
</g>
<g xmlns="http://www.w3.org/2000/svg">
</g>
<g xmlns="http://www.w3.org/2000/svg">
</g>
<g xmlns="http://www.w3.org/2000/svg">
</g>
<g xmlns="http://www.w3.org/2000/svg">
</g>
<g xmlns="http://www.w3.org/2000/svg">
</g>
<g xmlns="http://www.w3.org/2000/svg">
</g>
<g xmlns="http://www.w3.org/2000/svg">
</g>
<g xmlns="http://www.w3.org/2000/svg">
</g>
<g xmlns="http://www.w3.org/2000/svg">
</g>
<g xmlns="http://www.w3.org/2000/svg">
</g>
</g></svg>
